<svg xmlns="http://www.w3.org/2000/svg" viewBox="0 0 900 675">
  <rect width="900" height="675" rx="36" fill="#f6fbff"/>
  <rect x="82" y="85" width="736" height="440" rx="32" fill="#07111f"/>
  <rect x="122" y="130" width="460" height="330" rx="18" fill="#0b1d33"/>
  <rect x="150" y="160" width="380" height="42" rx="12" fill="#20e3a2"/>
  <rect x="150" y="232" width="100" height="82" rx="14" fill="#ffffff" opacity=".14"/>
  <rect x="272" y="232" width="100" height="82" rx="14" fill="#ffffff" opacity=".14"/>
  <rect x="394" y="232" width="100" height="82" rx="14" fill="#ffffff" opacity=".14"/>
  <rect x="150" y="338" width="344" height="28" rx="10" fill="#5ad7ff"/>
  <rect x="150" y="390" width="250" height="28" rx="10" fill="#ffffff" opacity=".7"/>
  <rect x="626" y="130" width="150" height="330" rx="18" fill="#ffffff"/>
  <rect x="650" y="163" width="102" height="22" rx="8" fill="#d8e6ef"/>
  <rect x="650" y="220" width="102" height="178" rx="12" fill="#20e3a2"/>
  <rect x="344" y="525" width="212" height="45" rx="12" fill="#07111f"/>
  <text x="110" y="615" fill="#07111f" font-family="Arial" font-size="48" font-weight="800">Bau-POS</text>
  <text x="111" y="647" fill="#0b1d33" font-family="Arial" font-size="22" font-weight="700">Punto de venta a la medida</text>
</svg>
