<svg xmlns="http://www.w3.org/2000/svg" viewBox="0 0 900 675">
  <rect width="900" height="675" rx="36" fill="#0b1d33"/>
  <circle cx="710" cy="120" r="145" fill="#20e3a2" opacity=".16"/>
  <rect x="84" y="90" width="732" height="474" rx="32" fill="#f6fbff"/>
  <rect x="128" y="138" width="250" height="378" rx="24" fill="#07111f"/>
  <rect x="158" y="176" width="124" height="20" rx="8" fill="#20e3a2"/>
  <rect x="158" y="238" width="176" height="54" rx="14" fill="#ffffff" opacity=".12"/>
  <rect x="158" y="312" width="176" height="54" rx="14" fill="#ffffff" opacity=".12"/>
  <rect x="158" y="386" width="176" height="54" rx="14" fill="#20e3a2"/>
  <rect x="432" y="140" width="314" height="58" rx="16" fill="#20e3a2"/>
  <g fill="#d8e6ef">
    <rect x="432" y="240" width="62" height="54" rx="12"/>
    <rect x="516" y="240" width="62" height="54" rx="12"/>
    <rect x="600" y="240" width="62" height="54" rx="12"/>
    <rect x="684" y="240" width="62" height="54" rx="12"/>
    <rect x="432" y="316" width="62" height="54" rx="12"/>
    <rect x="516" y="316" width="62" height="54" rx="12"/>
    <rect x="600" y="316" width="62" height="54" rx="12"/>
    <rect x="684" y="316" width="62" height="54" rx="12"/>
  </g>
  <rect x="432" y="420" width="314" height="54" rx="14" fill="#07111f"/>
  <text x="432" y="548" fill="#07111f" font-family="Arial" font-size="45" font-weight="800">CitasFácil</text>
  <text x="433" y="585" fill="#0b1d33" font-family="Arial" font-size="22" font-weight="700">Reservas y agenda en tiempo real</text>
</svg>
